<?xml version="1.0" encoding="UTF-8"?>
<svg version="1.1" xmlns="http://www.w3.org/2000/svg" width="512" height="512">
<path d="M0 0 C1.19282593 -0.00846954 2.38565186 -0.01693909 3.61462402 -0.02566528 C6.86448487 -0.04496841 10.11399135 -0.05081899 13.36389899 -0.04891777 C16.08280085 -0.04879758 18.80164972 -0.05738043 21.52053672 -0.06569529 C27.93381223 -0.08487852 34.34695758 -0.08783013 40.76025391 -0.08105469 C47.36908956 -0.0744014 53.97736889 -0.09734082 60.5860917 -0.13436842 C66.27209166 -0.16506606 71.95791251 -0.17642591 77.64399368 -0.1725316 C81.03513353 -0.17046593 84.42583919 -0.1759158 87.81690025 -0.20042419 C91.59453233 -0.22251086 95.37081083 -0.21296376 99.1484375 -0.1953125 C100.82783165 -0.21520737 100.82783165 -0.21520737 102.54115295 -0.23550415 C110.09170517 -0.15335672 110.09170517 -0.15335672 114.11335754 2.77087402 C115.88012695 5.41992188 115.88012695 5.41992188 115.88012695 8.41992188 C122.15012695 8.41992188 128.42012695 8.41992188 134.88012695 8.41992188 C135.21012695 6.76992188 135.54012695 5.11992188 135.88012695 3.41992188 C138.02873983 1.18416442 139.359991 0.49682731 142.43123835 0.04272372 C143.88888141 0.04118002 143.88888141 0.04118002 145.37597179 0.03960514 C146.50003907 0.0311652 147.62410635 0.02272526 148.78223628 0.01402956 C150.63487864 0.02304463 150.63487864 0.02304463 152.52494812 0.03224182 C154.49290532 0.02416351 154.49290532 0.02416351 156.50061923 0.01592201 C160.14558401 0.00143068 163.79032339 0.00572357 167.43530071 0.01308882 C171.36524971 0.01780931 175.29514916 0.00532037 179.2250824 -0.00492859 C186.92654956 -0.02214587 194.62793524 -0.02295029 202.32941666 -0.01771569 C208.590218 -0.01367702 214.85099523 -0.01511394 221.11179543 -0.02046394 C222.00232128 -0.02121237 222.89284713 -0.02196079 223.81035862 -0.02273189 C225.61941491 -0.02426335 227.42847119 -0.0258017 229.23752747 -0.02734686 C246.21331692 -0.0410833 263.18906032 -0.03562691 280.16484872 -0.02416164 C295.69115677 -0.01423524 311.21734555 -0.02715764 326.7436352 -0.05109584 C342.68490264 -0.07548858 358.62611454 -0.08509383 374.56740028 -0.07844311 C383.51754555 -0.07495035 392.46759916 -0.0771863 401.41773033 -0.09469414 C409.03965333 -0.1094186 416.66142018 -0.11004875 424.28334012 -0.09262323 C428.17106724 -0.08411147 432.05851546 -0.08196757 435.94622803 -0.09727478 C440.1645072 -0.1136775 444.38211371 -0.09897269 448.60038757 -0.08128357 C449.82432887 -0.09088858 451.04827017 -0.10049358 452.3093006 -0.11038965 C460.82431526 -0.03689709 467.29554281 1.59034146 474.19262695 6.66992188 C480.4362092 13.05870371 481.46808729 19.30696425 481.3813324 28.0045929 C481.38686679 29.0465339 481.39240119 30.0884749 481.3981033 31.16198987 C481.41167683 34.64054649 481.39675806 38.11838155 481.38183594 41.59692383 C481.38562017 44.09567062 481.39112108 46.59441531 481.39820862 49.09315491 C481.41071517 55.16651981 481.40460688 61.23960354 481.38953304 67.31294117 C481.37264815 74.38568578 481.37588607 81.45837883 481.37962712 88.53113737 C481.38550002 101.1471838 481.37135361 113.76313029 481.34667969 126.37915039 C481.32273506 138.62365459 481.31568603 150.86802541 481.32617188 163.11254883 C481.33757431 176.4512695 481.33952149 189.78992855 481.32507378 203.12864846 C481.32354794 204.54995516 481.32202758 205.97126187 481.32051277 207.39256859 C481.31975496 208.09187056 481.31899714 208.79117253 481.31821636 209.51166547 C481.3134703 214.44361608 481.31532706 219.37553919 481.31957817 224.3074894 C481.32501118 230.93871357 481.31429139 237.56977933 481.29262352 244.20097923 C481.28704176 246.63951873 481.28660299 249.07807601 481.29157639 251.51661682 C481.29749687 254.83467593 481.28508633 258.15216176 481.26780701 261.47016907 C481.27682207 262.93132714 481.27682207 262.93132714 481.28601927 264.42200357 C481.27757932 265.3078256 481.26913938 266.19364763 481.26044369 267.10631275 C481.25889999 268.25548671 481.25889999 268.25548671 481.25732511 269.42787629 C480.76854953 272.00918063 480.0081601 272.90313068 477.88012695 274.41992188 C476.56012695 274.41992188 475.24012695 274.41992188 473.88012695 274.41992188 C473.88012695 281.01992188 473.88012695 287.61992187 473.88012695 294.41992188 C475.53012695 294.74992187 477.18012695 295.07992188 478.88012695 295.41992188 C481.50484952 298.04464444 481.13534826 299.18463772 481.14755249 302.84561157 C481.15608246 303.99795288 481.16461243 305.15029419 481.17340088 306.33755493 C481.17249451 307.60819794 481.17158813 308.87884094 481.1706543 310.18798828 C481.17663649 311.53489557 481.18344132 312.88179942 481.19100952 314.22869873 C481.20871614 317.89430804 481.21336707 321.55982404 481.21464109 325.22547197 C481.21653886 328.2867527 481.22389564 331.34801164 481.23098528 334.409284 C481.2472873 341.63663672 481.25215288 348.8639396 481.25073242 356.09130859 C481.24953296 363.53828068 481.27059125 370.984962 481.30221975 378.43186057 C481.32841656 384.8285898 481.33909818 391.22522434 481.3378216 397.62200677 C481.33731263 401.44083318 481.34295875 405.25940174 481.3641777 409.07817459 C481.38361574 412.675027 481.38364715 416.27137734 481.36914444 419.86824799 C481.36607275 421.80856267 481.3826971 423.74887768 481.40002441 425.68911743 C481.34270817 433.67788787 480.40635448 439.0528907 475.2746582 445.40820312 C466.3097653 452.91215051 456.62054725 452.85616661 445.4052124 452.80760193 C443.83358036 452.81177877 442.26195134 452.81725821 440.69032788 452.82392174 C436.38765655 452.8383482 432.08517722 452.83414047 427.7824955 452.82675493 C423.13627967 452.82201885 418.49010512 452.83453673 413.84390259 452.84477234 C404.74945374 452.86195472 395.65507399 452.86280183 386.56061313 452.85755944 C379.17098888 452.85351689 371.78138505 452.85496228 364.39176178 452.86030769 C362.81380041 452.86143033 362.81380041 452.86143033 361.20396103 452.86257564 C359.06690349 452.86410711 356.92984595 452.86564546 354.79278842 452.86719061 C334.76117009 452.88091262 314.72959084 452.87547915 294.6979734 452.86400539 C276.36281559 452.85406451 258.02775858 452.867029 239.69261631 452.89093959 C220.86742015 452.91530453 202.04227099 452.92494542 183.21705937 452.91828686 C172.64738993 452.91478997 162.0777981 452.91705809 151.50814056 452.93453789 C142.51454684 452.94922693 133.52108544 452.94993817 124.5274944 452.93246698 C119.93747554 452.92392898 115.3476934 452.9218756 110.75768661 452.93711853 C106.558402 452.95089171 102.35955854 452.94629832 98.16029993 452.92687929 C96.63895705 452.92309633 95.11757945 452.92610688 93.59626731 452.93649095 C91.531918 452.94958297 89.46910912 452.93815032 87.40482712 452.92049313 C85.6834683 452.92033212 85.6834683 452.92033212 83.92733455 452.92016786 C80.17197687 452.30366815 78.47786876 451.17473963 75.88012695 448.41992188 C75.88012695 447.09992188 75.88012695 445.77992188 75.88012695 444.41992188 C69.61012695 444.41992188 63.34012695 444.41992188 56.88012695 444.41992188 C56.22012695 446.39992188 55.56012695 448.37992187 54.88012695 450.41992188 C51.78847125 452.81898329 48.69350862 452.67807717 44.87744141 452.69458008 C43.66550613 452.70411209 42.45357086 452.7136441 41.20491028 452.72346497 C39.89761459 452.72255356 38.59031891 452.72164215 37.2434082 452.72070312 C35.88062917 452.72459381 34.51785135 452.72892925 33.15507507 452.73368835 C30.29784214 452.74114572 27.44073275 452.74086439 24.58349609 452.7355957 C20.94328141 452.72982417 17.30357937 452.74667749 13.66344929 452.76994038 C10.84678752 452.78476679 8.03024637 452.78553703 5.21355247 452.78243065 C3.22570424 452.7831861 1.23787458 452.79699838 -0.74992371 452.81111145 C-10.4427819 452.76193415 -17.95441224 451.73619648 -25.5144043 445.40820312 C-32.20805625 437.11849791 -31.68644984 428.74757049 -31.62780762 418.64282227 C-31.63241884 416.91744746 -31.63877325 415.19207659 -31.64671659 413.46671391 C-31.66340257 408.7342685 -31.65516685 404.00214608 -31.64277172 399.26969957 C-31.63372059 394.16259615 -31.64769128 389.05554821 -31.65869141 383.94845581 C-31.6764805 373.94712156 -31.67263488 363.94590736 -31.66104084 353.9445684 C-31.65200835 345.81647999 -31.65078173 337.68842524 -31.65513611 329.56033325 C-31.65574904 328.40362596 -31.65636197 327.24691866 -31.65699348 326.05515963 C-31.65827238 323.70535174 -31.65956923 321.35554386 -31.66088384 319.00573599 C-31.67229079 296.97011428 -31.65917412 274.93455911 -31.63768238 252.89894831 C-31.61981131 233.99021606 -31.62291538 215.08158204 -31.64135742 196.17285156 C-31.66276209 174.21623206 -31.67119214 152.25967089 -31.65890837 130.30304241 C-31.65763417 127.96186512 -31.65637668 125.62068781 -31.65513611 123.2795105 C-31.65451901 122.127598 -31.6539019 120.97568551 -31.6532661 119.78886658 C-31.649812 111.67027547 -31.65564287 103.55172136 -31.66505432 95.43313599 C-31.67627117 85.53966169 -31.67324079 75.64631434 -31.65193135 65.75285459 C-31.64141678 60.7047726 -31.63730613 55.6569023 -31.65052795 50.60882187 C-31.66244911 45.98745136 -31.65589376 41.36648873 -31.63461775 36.74515522 C-31.63015053 35.07366554 -31.63242065 33.4021414 -31.6421209 31.73067391 C-31.6921419 22.39515335 -31.72172094 14.99692325 -25.47924805 7.43164062 C-24.68260742 6.77615234 -24.68260742 6.77615234 -23.86987305 6.10742188 C-23.3490918 5.65753906 -22.82831055 5.20765625 -22.29174805 4.74414062 C-14.99679264 0.2963171 -8.34381779 -0.0219595 0 0 Z " fill="#F7F5F6" transform="translate(31.119873046875,29.580078125)"/>
<path d="M0 0 C1.19282593 -0.00846954 2.38565186 -0.01693909 3.61462402 -0.02566528 C6.86448487 -0.04496841 10.11399135 -0.05081899 13.36389899 -0.04891777 C16.08280085 -0.04879758 18.80164972 -0.05738043 21.52053672 -0.06569529 C27.93381223 -0.08487852 34.34695758 -0.08783013 40.76025391 -0.08105469 C47.36908956 -0.0744014 53.97736889 -0.09734082 60.5860917 -0.13436842 C66.27209166 -0.16506606 71.95791251 -0.17642591 77.64399368 -0.1725316 C81.03513353 -0.17046593 84.42583919 -0.1759158 87.81690025 -0.20042419 C91.59453233 -0.22251086 95.37081083 -0.21296376 99.1484375 -0.1953125 C100.82783165 -0.21520737 100.82783165 -0.21520737 102.54115295 -0.23550415 C110.09170517 -0.15335672 110.09170517 -0.15335672 114.11335754 2.77087402 C115.88012695 5.41992188 115.88012695 5.41992188 115.88012695 8.41992188 C122.15012695 8.41992188 128.42012695 8.41992188 134.88012695 8.41992188 C135.21012695 6.76992188 135.54012695 5.11992188 135.88012695 3.41992188 C138.02873983 1.18416442 139.359991 0.49682731 142.43123835 0.04272372 C143.88888141 0.04118002 143.88888141 0.04118002 145.37597179 0.03960514 C146.50003907 0.0311652 147.62410635 0.02272526 148.78223628 0.01402956 C150.63487864 0.02304463 150.63487864 0.02304463 152.52494812 0.03224182 C154.49290532 0.02416351 154.49290532 0.02416351 156.50061923 0.01592201 C160.14558401 0.00143068 163.79032339 0.00572357 167.43530071 0.01308882 C171.36524971 0.01780931 175.29514916 0.00532037 179.2250824 -0.00492859 C186.92654956 -0.02214587 194.62793524 -0.02295029 202.32941666 -0.01771569 C208.590218 -0.01367702 214.85099523 -0.01511394 221.11179543 -0.02046394 C222.00232128 -0.02121237 222.89284713 -0.02196079 223.81035862 -0.02273189 C225.61941491 -0.02426335 227.42847119 -0.0258017 229.23752747 -0.02734686 C246.21331692 -0.0410833 263.18906032 -0.03562691 280.16484872 -0.02416164 C295.69115677 -0.01423524 311.21734555 -0.02715764 326.7436352 -0.05109584 C342.68490264 -0.07548858 358.62611454 -0.08509383 374.56740028 -0.07844311 C383.51754555 -0.07495035 392.46759916 -0.0771863 401.41773033 -0.09469414 C409.03965333 -0.1094186 416.66142018 -0.11004875 424.28334012 -0.09262323 C428.17106724 -0.08411147 432.05851546 -0.08196757 435.94622803 -0.09727478 C440.1645072 -0.1136775 444.38211371 -0.09897269 448.60038757 -0.08128357 C449.82432887 -0.09088858 451.04827017 -0.10049358 452.3093006 -0.11038965 C460.82431526 -0.03689709 467.29554281 1.59034146 474.19262695 6.66992188 C480.4362092 13.05870371 481.46808729 19.30696425 481.3813324 28.0045929 C481.38686679 29.0465339 481.39240119 30.0884749 481.3981033 31.16198987 C481.41167683 34.64054649 481.39675806 38.11838155 481.38183594 41.59692383 C481.38562017 44.09567062 481.39112108 46.59441531 481.39820862 49.09315491 C481.41071517 55.16651981 481.40460688 61.23960354 481.38953304 67.31294117 C481.37264815 74.38568578 481.37588607 81.45837883 481.37962712 88.53113737 C481.38550002 101.1471838 481.37135361 113.76313029 481.34667969 126.37915039 C481.32273506 138.62365459 481.31568603 150.86802541 481.32617188 163.11254883 C481.33757431 176.4512695 481.33952149 189.78992855 481.32507378 203.12864846 C481.32354794 204.54995516 481.32202758 205.97126187 481.32051277 207.39256859 C481.31975496 208.09187056 481.31899714 208.79117253 481.31821636 209.51166547 C481.3134703 214.44361608 481.31532706 219.37553919 481.31957817 224.3074894 C481.32501118 230.93871357 481.31429139 237.56977933 481.29262352 244.20097923 C481.28704176 246.63951873 481.28660299 249.07807601 481.29157639 251.51661682 C481.29749687 254.83467593 481.28508633 258.15216176 481.26780701 261.47016907 C481.27682207 262.93132714 481.27682207 262.93132714 481.28601927 264.42200357 C481.27757932 265.3078256 481.26913938 266.19364763 481.26044369 267.10631275 C481.25889999 268.25548671 481.25889999 268.25548671 481.25732511 269.42787629 C480.76884096 272.00764155 479.98471923 272.87825044 477.88012695 274.41992188 C472.30620379 275.12772164 472.30620379 275.12772164 469.88012695 274.41992188 C429.26640692 223.65277184 465.88012695 144.43359565 465.88012695 79.41992188 C306.82012695 79.41992188 147.76012695 79.41992188 -16.11987305 79.41992188 C-15.99612305 137.25242188 -15.87237305 195.08492188 -15.74487305 254.66992188 C-15.71087402 272.95817383 -15.676875 291.24642578 -15.6418457 310.08886719 C-15.60195546 326.42416722 -15.60195546 326.42416722 -15.55941772 342.75946045 C-15.54048214 350.05845036 -15.52700217 357.35742576 -15.5171814 364.65643311 C-15.50584621 373.06715041 -15.48767978 381.4778193 -15.46094426 389.88850228 C-15.44747559 394.19413951 -15.43716088 398.49972093 -15.43561864 402.80538034 C-15.43416699 406.69476398 -15.423647 410.58401077 -15.40572929 414.47335243 C-15.40086561 415.8832039 -15.39940317 417.29307183 -15.40159678 418.70292997 C-15.40408329 420.61730781 -15.39319672 422.53168923 -15.38158607 424.44603348 C-15.37930775 425.51076928 -15.37702943 426.57550509 -15.37468207 427.67250562 C-15.11656949 430.45554169 -14.64518467 432.09595214 -13.11987305 434.41992188 C-10.41616309 435.77177685 -8.30778626 435.5446023 -5.28076172 435.54589844 C-4.05576462 435.5497052 -2.83076752 435.55351196 -1.56864929 435.55743408 C-0.91209539 435.55762794 -0.2555415 435.55782181 0.42090797 435.55802155 C3.18154534 435.56143686 5.94194714 435.58280045 8.70250225 435.60325241 C13.84287766 435.64126867 18.98300314 435.67253874 24.12353516 435.67041016 C27.69882949 435.66962218 31.2732637 435.69302264 34.84833336 435.73229218 C36.20900287 435.74274247 37.56977179 435.7442832 38.93045998 435.73664093 C50.9283805 435.67598909 50.9283805 435.67598909 54.1953125 438.80175781 C55.95110917 441.53022666 56.79702098 443.1787889 56.88012695 446.41992188 C56.07894136 448.96914876 55.42596287 450.06939647 53.17326355 451.51603699 C50.29111798 452.65209134 47.97578436 452.68118103 44.87744141 452.69458008 C43.66550613 452.70411209 42.45357086 452.7136441 41.20491028 452.72346497 C39.89761459 452.72255356 38.59031891 452.72164215 37.2434082 452.72070312 C35.88062917 452.72459381 34.51785135 452.72892925 33.15507507 452.73368835 C30.29784214 452.74114572 27.44073275 452.74086439 24.58349609 452.7355957 C20.94328141 452.72982417 17.30357937 452.74667749 13.66344929 452.76994038 C10.84678752 452.78476679 8.03024637 452.78553703 5.21355247 452.78243065 C3.22570424 452.7831861 1.23787458 452.79699838 -0.74992371 452.81111145 C-10.4427819 452.76193415 -17.95441224 451.73619648 -25.5144043 445.40820312 C-32.20805625 437.11849791 -31.68644984 428.74757049 -31.62780762 418.64282227 C-31.63241884 416.91744746 -31.63877325 415.19207659 -31.64671659 413.46671391 C-31.66340257 408.7342685 -31.65516685 404.00214608 -31.64277172 399.26969957 C-31.63372059 394.16259615 -31.64769128 389.05554821 -31.65869141 383.94845581 C-31.6764805 373.94712156 -31.67263488 363.94590736 -31.66104084 353.9445684 C-31.65200835 345.81647999 -31.65078173 337.68842524 -31.65513611 329.56033325 C-31.65574904 328.40362596 -31.65636197 327.24691866 -31.65699348 326.05515963 C-31.65827238 323.70535174 -31.65956923 321.35554386 -31.66088384 319.00573599 C-31.67229079 296.97011428 -31.65917412 274.93455911 -31.63768238 252.89894831 C-31.61981131 233.99021606 -31.62291538 215.08158204 -31.64135742 196.17285156 C-31.66276209 174.21623206 -31.67119214 152.25967089 -31.65890837 130.30304241 C-31.65763417 127.96186512 -31.65637668 125.62068781 -31.65513611 123.2795105 C-31.65451901 122.127598 -31.6539019 120.97568551 -31.6532661 119.78886658 C-31.649812 111.67027547 -31.65564287 103.55172136 -31.66505432 95.43313599 C-31.67627117 85.53966169 -31.67324079 75.64631434 -31.65193135 65.75285459 C-31.64141678 60.7047726 -31.63730613 55.6569023 -31.65052795 50.60882187 C-31.66244911 45.98745136 -31.65589376 41.36648873 -31.63461775 36.74515522 C-31.63015053 35.07366554 -31.63242065 33.4021414 -31.6421209 31.73067391 C-31.6921419 22.39515335 -31.72172094 14.99692325 -25.47924805 7.43164062 C-24.68260742 6.77615234 -24.68260742 6.77615234 -23.86987305 6.10742188 C-23.3490918 5.65753906 -22.82831055 5.20765625 -22.29174805 4.74414062 C-14.99679264 0.2963171 -8.34381779 -0.0219595 0 0 Z " fill="#010202" transform="translate(31.119873046875,29.580078125)"/>
<path d="M0 0 C6.93 0 13.86 0 21 0 C21.99 2.475 21.99 2.475 23 5 C26.35746002 7.23830668 27.43129286 7.24949628 31.35273552 7.24774647 C33.02909987 7.25431946 33.02909987 7.25431946 34.73933017 7.26102525 C36.58876167 7.25300725 36.58876167 7.25300725 38.47555542 7.24482727 C39.78132762 7.24709184 41.08709982 7.24935642 42.43244088 7.25168961 C46.06455229 7.25780488 49.69655481 7.25153553 53.32865834 7.243379 C57.24285253 7.2368026 61.1570326 7.24179575 65.07122803 7.24560547 C71.85651482 7.25083338 78.64177308 7.24932942 85.42705917 7.24382973 C96.1486724 7.2356261 106.87022384 7.24683485 117.59182739 7.2610321 C121.25839791 7.2656334 124.9249686 7.27008371 128.59153938 7.27447033 C129.96605512 7.27611754 129.96605512 7.27611754 131.36833885 7.27779803 C141.80236021 7.28997574 152.23638355 7.29752532 162.67041016 7.3034668 C163.62439883 7.30401486 164.5783875 7.30456292 165.56128491 7.30512758 C181.02565341 7.31358929 196.49000451 7.31024773 211.95437311 7.30431245 C227.82329458 7.29869911 243.69212824 7.31220885 259.56102288 7.34186524 C269.35377319 7.35942777 279.14626999 7.36101468 288.93901922 7.34222009 C295.64786601 7.33063281 302.35654142 7.33703156 309.0653659 7.3576893 C312.93846899 7.36903318 316.81113082 7.37213267 320.68421555 7.35351372 C324.87999104 7.33352971 329.07471376 7.35196048 333.27047729 7.3742218 C334.49897018 7.3621843 335.72746307 7.35014681 336.99318302 7.33774453 C338.67737061 7.35605239 338.67737061 7.35605239 340.3955822 7.37473011 C341.36414142 7.37478513 342.33270065 7.37484014 343.33061016 7.37489682 C346 8 346 8 351 13 C351 27.19 351 41.38 351 56 C191.94 56 32.88 56 -131 56 C-131 13 -131 13 -126 8 C-123.50623226 7.37752342 -123.50623226 7.37752342 -120.83201599 7.38095093 C-119.30320801 7.36452293 -119.30320801 7.36452293 -117.74351501 7.34776306 C-116.63633621 7.36110184 -115.52915741 7.37444061 -114.38842773 7.38818359 C-113.21394073 7.38251877 -112.03945374 7.37685394 -110.82937622 7.37101746 C-107.61636263 7.35984055 -104.40428178 7.37048136 -101.19133639 7.38989592 C-97.82590689 7.40421354 -94.46064144 7.38793974 -91.0952301 7.37417603 C-83.99634636 7.34970398 -76.89772963 7.35547546 -69.79882812 7.36798096 C-59.10785282 7.38657949 -48.41692781 7.38171849 -37.72598988 7.34794676 C-34.37682785 7.33832192 -31.02795482 7.33595412 -27.67880058 7.34955978 C-23.9464711 7.36346028 -20.21451784 7.35990234 -16.48217773 7.35302734 C-15.3729747 7.36231766 -14.26377167 7.37160797 -13.12095642 7.38117981 C-12.10457092 7.37586746 -11.08818542 7.37055511 -10.04100037 7.36508179 C-9.15888602 7.36696692 -8.27677168 7.36885204 -7.3679266 7.3707943 C-4.43973811 6.91226843 -3.10048201 6.07613467 -1 4 C-0.67 2.68 -0.34 1.36 0 0 Z " fill="#89BAD4" transform="translate(146,38)"/>
<path d="M0 0 C4.73807469 1.92880373 8.16538103 6.08084593 11.70236206 9.65484619 C12.60249527 10.54686737 13.50262848 11.43888855 14.43003845 12.35794067 C16.32633789 14.24578437 18.21527871 16.13860926 20.09518433 18.0425415 C22.49998465 20.47595343 24.93293822 22.87877951 27.37549496 25.27421761 C29.70948615 27.57193836 32.01705279 29.89585198 34.32736206 32.21734619 C35.20222763 33.07490509 36.0770932 33.93246399 36.97846985 34.81600952 C42.87044243 40.84702209 42.87044243 40.84702209 43.75387573 45.70513916 C42.15395471 52.81848903 36.43214392 56.62163388 30.79821777 60.75521851 C19.1817988 69.37836984 7.11458222 78.72071113 4.56173706 93.71636963 C2.69544815 110.02364205 3.83208116 126.52328188 5.05001831 142.83453369 C19.24001831 142.50453369 33.43001831 142.17453369 48.05001831 141.83453369 C46.07001831 139.52453369 44.09001831 137.21453369 42.05001831 134.83453369 C41.36251831 132.20953369 41.36251831 132.20953369 42.05001831 129.83453369 C44.11251831 126.95953369 44.11251831 126.95953369 47.05001831 124.83453369 C52.53403555 125.00220905 55.2140848 126.23458421 59.07345581 130.06109619 C59.94872925 130.92863525 60.82400269 131.79617432 61.72579956 132.69000244 C63.06191284 134.06092041 63.06191284 134.06092041 64.42501831 135.45953369 C65.33896362 136.35027588 66.25290894 137.24101807 67.19454956 138.15875244 C68.06208862 139.03402588 68.92962769 139.90929932 69.82345581 140.81109619 C70.6115564 141.60596436 71.39965698 142.40083252 72.2116394 143.2197876 C74.48995207 146.46025621 74.84015824 148.91318965 75.05001831 152.83453369 C74.10861206 154.77593994 74.10861206 154.77593994 72.48751831 156.39703369 C71.84685425 157.04929932 71.20619019 157.70156494 70.54611206 158.37359619 C69.72240112 159.18570557 68.89869019 159.99781494 68.05001831 160.83453369 C66.93367332 162.02698536 65.82065624 163.22255736 64.71017456 164.42047119 C63.49160425 165.70573187 62.27153799 166.98957579 61.05001831 168.27203369 C60.46921509 168.8998877 59.88841187 169.5277417 59.29000854 170.17462158 C56.27691641 173.25873932 54.55211461 174.69593419 50.30001831 175.86968994 C47.05001831 175.83453369 47.05001831 175.83453369 44.05001831 173.83453369 C42.05001831 170.83453369 42.05001831 170.83453369 41.92501831 167.33453369 C43.05001831 163.83453369 43.05001831 163.83453369 48.05001831 158.83453369 C22.97001831 158.50453369 -2.10998169 158.17453369 -27.94998169 157.83453369 C-27.94998169 165.75453369 -27.94998169 173.67453369 -27.94998169 181.83453369 C-31.46795768 188.87048567 -31.46795768 188.87048567 -36.94998169 190.83453369 C-40.02285767 191.22221375 -40.02285767 191.22221375 -43.31912231 191.23858643 C-44.56061035 191.2512706 -45.80209839 191.26395477 -47.08120728 191.27702332 C-48.42288379 191.27497181 -49.76455915 191.27198373 -51.10623169 191.26812744 C-52.49576064 191.2726937 -53.88528734 191.2780006 -55.27481079 191.28401184 C-58.17981166 191.29292243 -61.0845373 191.29054294 -63.98953247 191.28057861 C-67.70188881 191.2690821 -71.41329487 191.28931983 -75.12552643 191.31849575 C-77.99270604 191.33688919 -80.8596591 191.33655931 -83.72688293 191.33085823 C-85.09515213 191.33070545 -86.46343709 191.33671427 -87.83164978 191.3491497 C-99.82440748 191.44281794 -99.82440748 191.44281794 -103.64724731 189.11602783 C-107.9261954 184.87654841 -109.32420706 181.59623504 -109.35403442 175.57891846 C-109.3667186 174.33735489 -109.37940277 173.09579132 -109.39247131 171.81660461 C-109.39041965 170.46971469 -109.38743144 169.12282591 -109.38357544 167.77593994 C-109.38814026 166.38498175 -109.39344673 164.99402581 -109.39945984 163.60307312 C-109.40837946 160.69209616 -109.40598136 157.7813937 -109.39602661 154.87042236 C-109.38454065 151.15019046 -109.40474705 147.4309083 -109.43394375 143.71080112 C-109.45233971 140.83933041 -109.45200661 137.96808586 -109.44630623 135.09657097 C-109.44615341 133.72551072 -109.45216491 132.35443475 -109.4645977 130.98343086 C-109.55829033 118.95787755 -109.55829033 118.95787755 -107.23147583 115.1350708 C-102.99063856 110.85883649 -99.71102317 109.46030505 -93.69436646 109.43048096 C-92.45280289 109.41779678 -91.21123932 109.40511261 -89.93205261 109.39204407 C-88.58516269 109.39409573 -87.23827391 109.39708394 -85.89138794 109.40093994 C-84.50042975 109.39637512 -83.10947381 109.39106865 -81.71852112 109.38505554 C-78.80754416 109.37613592 -75.8968417 109.37853402 -72.98587036 109.38848877 C-69.26563846 109.39997473 -65.5463563 109.37976833 -61.82624912 109.35057163 C-58.95477841 109.33217567 -56.08353385 109.33250878 -53.21201897 109.33820915 C-51.84095872 109.33836197 -50.46988275 109.33235047 -49.09887886 109.31991768 C-35.73841778 109.21582461 -35.73841778 109.21582461 -30.94998169 113.83453369 C-28.64589146 116.17225364 -28.01482802 117.31111459 -27.60940552 120.58355713 C-27.62511597 121.60997314 -27.64082642 122.63638916 -27.65701294 123.69390869 C-27.66668091 124.80894775 -27.67634888 125.92398682 -27.68630981 127.07281494 C-27.71144653 128.23168213 -27.73658325 129.39054932 -27.76248169 130.58453369 C-27.77601685 131.75886963 -27.789552 132.93320557 -27.80349731 134.14312744 C-27.83883062 137.04045886 -27.89263679 139.93755434 -27.94998169 142.83453369 C-22.00998169 142.83453369 -16.06998169 142.83453369 -9.94998169 142.83453369 C-9.28666296 135.30135052 -8.8590836 127.79787029 -8.61941528 120.23931885 C-8.50880287 117.69013311 -8.34100125 115.14260891 -8.1086731 112.60162354 C-6.70648164 96.74994344 -9.6550515 84.88518823 -19.46089172 72.40881348 C-30.93603675 58.91530827 -42.63989385 52.41172636 -60.36649513 50.94073486 C-72.90860067 50.24683846 -85.43951111 50.67256441 -97.97259867 51.30348587 C-104.88572587 51.64331221 -111.79853409 51.76530932 -118.71836317 51.8832736 C-129.47114933 52.07801571 -140.22344916 52.36949136 -150.96633911 52.87261963 C-152.01082718 52.90851196 -153.05531525 52.9444043 -154.13145447 52.98138428 C-158.3231575 53.20686687 -161.31419252 53.51599174 -165.09701538 55.41125488 C-167.62571499 58.71824657 -167.64543148 61.56580531 -167.58108521 65.56890869 C-167.58824051 66.34335327 -167.59539581 67.11779785 -167.60276794 67.91571045 C-167.61966026 70.47258716 -167.60025096 73.02771173 -167.57888794 75.58453369 C-167.5797166 77.36285548 -167.58217586 79.14117719 -167.5861969 80.91949463 C-167.58905525 84.64531528 -167.57435047 88.37053489 -167.54690552 92.09625244 C-167.51282236 96.87155693 -167.51884041 101.64578665 -167.53756809 106.42114258 C-167.54813782 110.09292555 -167.53920057 113.76445853 -167.52418327 117.43621826 C-167.51900078 119.19687152 -167.51948409 120.95755087 -167.52572823 122.71820068 C-167.53118025 125.17942418 -167.51080772 127.63911039 -167.48342896 130.10015869 C-167.48995483 130.82755249 -167.49648071 131.55494629 -167.50320435 132.30438232 C-167.43944135 135.67607457 -167.16309853 137.54401536 -165.14613342 140.29351807 C-161.95741136 142.53100942 -158.93672523 142.26819216 -155.19998169 142.08453369 C-154.50259888 142.06648682 -153.80521606 142.04843994 -153.08670044 142.02984619 C-151.3738663 141.98291923 -149.66174345 141.91117974 -147.94998169 141.83453369 C-148.77498169 140.98890869 -149.59998169 140.14328369 -150.44998169 139.27203369 C-152.59918211 136.67457146 -152.9699111 135.7189431 -153.57498169 132.20953369 C-152.94998169 128.83453369 -152.94998169 128.83453369 -150.82498169 126.33453369 C-147.19913161 124.44278582 -145.84905095 124.75364557 -141.94998169 125.83453369 C-138.49013115 128.3942921 -135.54562154 131.43599657 -132.525177 134.49761963 C-131.0784534 135.95603393 -129.60262336 137.37954522 -128.12185669 138.80328369 C-127.20146606 139.72367432 -126.28107544 140.64406494 -125.33279419 141.59234619 C-124.07039917 142.84749023 -124.07039917 142.84749023 -122.78250122 144.12799072 C-120.44221469 147.58448106 -120.52385899 149.74030073 -120.94998169 153.83453369 C-122.05935669 155.84625244 -122.05935669 155.84625244 -123.69998169 157.52203369 C-124.64357544 158.50623291 -124.64357544 158.50623291 -125.60623169 159.51031494 C-126.76638794 160.66080322 -126.76638794 160.66080322 -127.94998169 161.83453369 C-128.96145526 162.86865724 -129.97179727 163.90388832 -130.98123169 164.94000244 C-141.49688868 175.64903246 -141.49688868 175.64903246 -145.88748169 176.20953369 C-148.94998169 175.83453369 -148.94998169 175.83453369 -151.32498169 174.27203369 C-153.61043054 170.84386042 -153.57841419 168.88443201 -152.94998169 164.83453369 C-151.45108889 162.65994448 -149.71016515 160.81508878 -147.94998169 158.83453369 C-149.13334106 158.83195557 -150.31670044 158.82937744 -151.53591919 158.82672119 C-162.6088779 158.6252669 -170.24764907 157.53686631 -178.38748169 149.39703369 C-182.13337381 143.25377061 -183.39855918 138.48648259 -183.38577271 131.39581299 C-183.39584854 130.58180023 -183.40592438 129.76778748 -183.41630554 128.92910767 C-183.4446497 126.25551369 -183.45065524 123.58248704 -183.45388794 120.90875244 C-183.46353876 119.0369901 -183.47363195 117.16522998 -183.48414612 115.29347229 C-183.50207384 111.37554686 -183.50767064 107.45781949 -183.50588989 103.53985596 C-183.5055853 98.53972059 -183.54652953 93.54086594 -183.59820652 88.54103374 C-183.63169956 84.67603314 -183.63764351 80.81133786 -183.63606071 76.94620705 C-183.63958156 75.10393678 -183.65274233 73.26165696 -183.67605782 71.41953087 C-183.89302846 52.50644341 -183.89302846 52.50644341 -176.94998169 44.83453369 C-170.58725585 39.04492421 -164.41979045 37.56740766 -155.91343689 37.911026 C-154.85855576 37.96385239 -153.80367462 38.01667877 -152.71682739 38.07110596 C-150.38448395 38.1668487 -148.05206661 38.26080333 -145.71958923 38.35322571 C-144.48442881 38.40418962 -143.24926838 38.45515354 -141.97667885 38.50766182 C-134.66618077 38.779658 -127.35166508 38.91202603 -120.03762305 39.05216515 C-112.33746481 39.20048897 -104.64964748 39.40298373 -96.95755005 39.79229736 C-60.36357469 42.37135684 -60.36357469 42.37135684 -28.78144741 26.61812878 C-21.49359375 19.53157466 -15.04947027 11.70549769 -9.22017193 3.38653469 C-6.538093 0.10939631 -4.11462624 -0.75364484 0 0 Z " fill="#030303" transform="translate(230.94998168945313,242.16546630859375)"/>
<path d="M0 0 C1.25613098 -0.00860046 2.51226196 -0.01720093 3.80645752 -0.02606201 C5.2012325 -0.03049713 6.59600791 -0.0347955 7.99078369 -0.03897095 C9.45768426 -0.04687343 10.9245829 -0.05514248 12.39147949 -0.06375122 C17.2113459 -0.08995429 22.03122093 -0.1052771 26.85113525 -0.11953735 C28.51113134 -0.12489773 30.17112737 -0.13027524 31.83112335 -0.13566971 C38.73680239 -0.15729588 45.64247911 -0.17603219 52.54818344 -0.1872921 C62.4409647 -0.20352932 72.33335309 -0.2367043 82.22598624 -0.29369295 C89.18406038 -0.33240826 96.14202951 -0.35192666 103.10020852 -0.35721266 C107.25497005 -0.36086396 111.4093124 -0.37286111 115.56395721 -0.4053154 C119.4743885 -0.43542444 123.38414758 -0.44169818 127.2946701 -0.42993164 C128.72693388 -0.42971114 130.1592291 -0.43799707 131.59138489 -0.45558548 C145.07718486 -0.61214127 145.07718486 -0.61214127 150.99176025 5.15390015 C152.64673382 8.46384727 152.09260361 12.14513015 152.05426025 15.77890015 C152.04974854 16.58069702 152.04523682 17.3824939 152.04058838 18.20858765 C152.02879194 20.19039021 152.0108563 22.17215448 151.99176025 24.15390015 C152.76777588 24.12771606 153.5437915 24.10153198 154.34332275 24.07455444 C157.89259225 23.96999288 161.44153677 23.90538461 164.99176025 23.84140015 C166.21250244 23.79950562 167.43324463 23.75761108 168.690979 23.71444702 C177.63821091 23.59353848 182.51113605 24.99332053 189.01519775 31.0328064 C189.46121338 31.58839233 189.907229 32.14397827 190.36676025 32.71640015 C191.05898682 33.55364624 191.05898682 33.55364624 191.76519775 34.4078064 C195.01159081 39.02926402 195.26218385 42.83990667 195.18707275 48.41952515 C195.18424286 49.21292297 195.18141296 50.0063208 195.17849731 50.82376099 C195.16732804 53.35062932 195.14222969 55.87713946 195.11676025 58.40390015 C195.10672624 60.12004085 195.09760112 61.83618713 195.0894165 63.55233765 C195.06739939 67.75299588 195.03289212 71.95338734 194.99176025 76.15390015 C195.71093124 76.1450177 196.43010223 76.13613525 197.17106628 76.12698364 C203.98174494 76.04650275 210.7923516 75.98576661 217.60338497 75.94665146 C221.10422658 75.92586495 224.60467199 75.89771415 228.10528564 75.85214233 C232.13909492 75.79996387 236.17249453 75.78088129 240.206604 75.76327515 C241.45070541 75.74263 242.69480682 75.72198486 243.97660828 75.70071411 C252.65458348 75.69849325 258.41374555 77.34466385 265.74176025 81.84140015 C272.93295142 89.23234663 273.71504189 96.53929458 273.60699463 106.53305054 C273.61254364 107.84800003 273.61809265 109.16294952 273.62380981 110.51774597 C273.63797364 114.10056372 273.62108108 117.6826062 273.59752464 121.26534963 C273.57730987 125.02787329 273.58330062 128.79036808 273.58563232 132.55293274 C273.58557887 138.86837434 273.56589308 145.18351557 273.53375244 151.49887085 C273.49684884 158.78521691 273.48808038 166.07117008 273.49504995 173.35759741 C273.50136926 180.38797719 273.49057535 187.41822322 273.47108459 194.44857597 C273.46294097 197.43123732 273.46019541 200.41383002 273.46177673 203.39650154 C273.46282412 207.56591506 273.43857245 211.7348174 273.41168213 215.90414429 C273.41461273 217.13294312 273.41754333 218.36174194 273.42056274 219.6277771 C273.33793628 227.94383344 272.58434697 235.38860439 266.58551025 241.77108765 C257.45439044 249.69367689 246.46619694 249.06871874 234.99176025 249.15390015 C235.80386963 250.06913452 236.615979 250.9843689 237.45269775 251.92733765 C239.70302713 254.46342314 240.00136706 255.20961965 240.61676025 258.77890015 C239.99176025 262.15390015 239.99176025 262.15390015 237.80426025 264.59140015 C234.69233299 266.32024863 233.47454718 266.60614263 229.99176025 266.15390015 C227.6675415 264.53671265 227.6675415 264.53671265 225.30426025 262.27890015 C224.44445557 261.46421265 223.58465088 260.64952515 222.6987915 259.81015015 C221.80547119 258.93358765 220.91215088 258.05702515 219.99176025 257.15390015 C219.06750244 256.25671265 218.14324463 255.35952515 217.190979 254.43515015 C208.15691768 245.54490166 208.15691768 245.54490166 207.59283447 240.79403687 C208.08192572 236.33115404 209.22469178 235.04350125 212.37457275 231.91171265 C213.29496338 230.99132202 214.215354 230.0709314 215.16363525 229.12265015 C215.64896729 228.65600952 216.13429932 228.1893689 216.63433838 227.70858765 C218.11297223 226.28255342 219.55691581 224.82716271 220.99957275 223.36483765 C229.07932013 215.41975273 229.07932013 215.41975273 234.99176025 215.15390015 C237.86676025 216.65390015 237.86676025 216.65390015 239.99176025 219.15390015 C240.61676025 222.52890015 240.61676025 222.52890015 239.99176025 226.15390015 C238.48842849 228.32340176 236.74902857 230.17348665 234.99176025 232.15390015 C237.74182634 232.18092045 240.49162572 232.20074897 243.24176025 232.21640015 C244.01906494 232.22477905 244.79636963 232.23315796 245.597229 232.24179077 C246.35133057 232.24501343 247.10543213 232.24823608 247.88238525 232.2515564 C248.57364502 232.25679321 249.26490479 232.26203003 249.97711182 232.26742554 C252.15365719 232.14477726 253.9470671 231.92549812 255.99176025 231.15390015 C257.00995523 228.09931521 257.12719845 226.00752649 257.1456604 222.80882263 C257.1585611 221.1453051 257.1585611 221.1453051 257.17172241 219.44818115 C257.17598236 218.23095367 257.18024231 217.0137262 257.18463135 215.75961304 C257.19280884 214.47812881 257.20098633 213.19664459 257.20941162 211.87632751 C257.23559698 207.62642512 257.25093162 203.37651302 257.26519775 199.1265564 C257.27055809 197.66337007 257.2759356 196.20018381 257.28133011 194.7369976 C257.30295002 188.65226247 257.32168833 182.56752996 257.3329525 176.48276615 C257.34920494 167.76106079 257.38242357 159.03979994 257.43935335 150.31826216 C257.47802099 144.18570572 257.49758113 138.05326837 257.50287306 131.9205932 C257.50652978 128.25718883 257.51858447 124.59425893 257.5509758 120.9309864 C257.58657826 116.8462478 257.58269382 112.76246869 257.57525635 108.67758179 C257.59986435 106.85477692 257.59986435 106.85477692 257.62496948 104.99514771 C257.71686693 98.71808536 257.71686693 98.71808536 254.8120575 93.4052887 C251.73386488 92.0394699 249.64415997 91.63834619 246.2835083 91.60800171 C245.16272385 91.58828308 244.04193939 91.56856445 242.88719177 91.54824829 C241.68806656 91.54701965 240.48894135 91.54579102 239.253479 91.54452515 C238.01757523 91.52798889 236.78167145 91.51145264 235.50831604 91.49441528 C232.23511074 91.45412045 228.96236494 91.43076565 225.68896484 91.41567993 C222.34374973 91.39607212 218.99890649 91.35377346 215.65386963 91.3140564 C209.09990336 91.24011307 202.54604589 91.18850632 195.99176025 91.15390015 C196.01270752 92.07090698 196.03365479 92.98791382 196.05523682 93.93270874 C196.12397971 97.3807305 196.17383177 100.8280095 196.21148682 104.27645874 C196.23143006 105.76030062 196.25859515 107.2440657 196.29351807 108.72763062 C196.53974569 119.46750037 196.15766302 128.65552552 188.74176025 137.09140015 C182.9381153 142.93814147 175.7572075 143.47266779 167.93696976 143.50195122 C165.8092115 143.49354892 163.68189967 143.47047031 161.55426025 143.4468689 C160.06354196 143.44126486 158.5728181 143.43699858 157.08209229 143.43400574 C153.18249926 143.42262043 149.28324817 143.39320883 145.38378906 143.3598938 C141.39508691 143.32905568 137.40632883 143.31547121 133.4175415 143.30038452 C125.60879286 143.26833205 117.8003247 143.21721361 109.99176025 143.15390015 C110.63057129 143.84769775 110.63057129 143.84769775 111.2822876 144.55551147 C111.83352295 145.17192505 112.3847583 145.78833862 112.95269775 146.4234314 C113.77713379 147.3337915 113.77713379 147.3337915 114.6182251 148.26254272 C115.99176025 150.15390015 115.99176025 150.15390015 116.61676025 153.84140015 C115.99176025 157.15390015 115.99176025 157.15390015 114.36676025 159.59140015 C111.99176025 161.15390015 111.99176025 161.15390015 109.24176025 161.84140015 C104.19306781 160.77340751 101.58870719 157.72771559 97.99176025 154.15390015 C96.86946849 153.05743945 95.74706421 151.96109391 94.62457275 150.86483765 C84.13194675 140.53600178 84.13194675 140.53600178 83.65753174 135.85873413 C84.06633185 131.32729393 85.17536453 130.07051838 88.3394165 126.8765564 C89.25529541 125.95165405 90.17117432 125.02675171 91.11480713 124.07382202 C91.598125 123.60516724 92.08144287 123.13651245 92.57940674 122.65365601 C94.05096097 121.21961533 95.48137677 119.75200321 96.91168213 118.27694702 C97.83658447 117.36106812 98.76148682 116.44518921 99.7144165 115.5015564 C100.97910767 114.2487085 100.97910767 114.2487085 102.26934814 112.97055054 C105.73989244 110.65467572 107.89646175 110.7419328 111.99176025 111.15390015 C114.42926025 112.15390015 114.42926025 112.15390015 115.99176025 114.15390015 C116.76995574 119.5148024 116.76995574 119.5148024 115.99176025 122.15390015 C114.35564956 123.85057258 112.69055659 125.51999483 110.99176025 127.15390015 C119.26718321 127.24660372 127.54238903 127.3176663 135.81820297 127.36114883 C139.66107277 127.38201898 143.50358718 127.41032521 147.34625244 127.45565796 C151.05507141 127.4991376 154.76354867 127.52304157 158.47260284 127.53340912 C159.8872236 127.54079682 161.30182578 127.55522358 162.71630096 127.57682037 C164.69823448 127.6058763 166.68051225 127.60753423 168.66265869 127.60800171 C169.79072937 127.61688416 170.91880005 127.6257666 172.08105469 127.63491821 C175.64501001 127.04594524 176.77533136 125.94166145 178.99176025 123.15390015 C180.4592585 120.21890365 180.16491781 117.24867148 180.18463135 114.02963257 C180.19280884 113.29610062 180.20098633 112.56256866 180.20941162 111.80680847 C180.23426547 109.37433694 180.25078156 106.94192377 180.26519775 104.5093689 C180.27318327 103.26376914 180.27318327 103.26376914 180.28133011 101.99300575 C180.30806173 97.59767199 180.32743651 93.20236664 180.34185791 88.80697632 C180.3585056 84.26713115 180.40328367 79.72801195 180.45422935 75.18844128 C180.48788626 71.69769965 180.49943357 68.20713068 180.50508499 64.71624184 C180.51180189 63.0428748 180.52703549 61.3695193 180.5509758 59.69631004 C180.58259893 57.35238884 180.58266951 55.01042986 180.57525635 52.66635132 C180.59166168 51.97681366 180.60806702 51.287276 180.62496948 50.57684326 C180.57555592 46.75456049 180.05766336 45.23516482 177.61698914 42.22558594 C174.6825926 39.90992209 173.37284845 39.5114631 169.690979 39.4468689 C168.71451416 39.41786499 167.73804932 39.38886108 166.73199463 39.35897827 C165.22089111 39.3502771 165.22089111 39.3502771 163.67926025 39.34140015 C162.65252197 39.31626343 161.62578369 39.29112671 160.56793213 39.26522827 C158.04215625 39.2064893 155.51810797 39.17011302 152.99176025 39.15390015 C153.0381665 40.09491577 153.08457275 41.0359314 153.13238525 42.00546265 C153.46418588 53.45258436 153.46418588 53.45258436 151.36676025 56.84140015 C146.08979796 61.97949501 141.06525904 62.62089807 134.050354 62.62265015 C133.2050563 62.63026367 132.35975861 62.6378772 131.48884583 62.64572144 C129.70965518 62.65648393 127.93040155 62.65939126 126.15118408 62.65487671 C123.43356263 62.65390169 120.7187422 62.69561932 118.00152588 62.73983765 C116.26780778 62.74504332 114.53407992 62.74773286 112.800354 62.74765015 C111.99190536 62.76404541 111.18345673 62.78044067 110.35050964 62.79733276 C106.08826709 62.74521904 104.45706122 62.51586368 100.97637939 59.80819702 C98.99176025 57.15390015 98.99176025 57.15390015 98.42926025 54.09140015 C99.13907989 50.38456428 99.97578118 49.40365106 102.99176025 47.15390015 C105.81193452 46.80466419 108.22896288 46.68540806 111.03863525 46.76327515 C111.80983704 46.76893494 112.58103882 46.77459473 113.37561035 46.78042603 C115.83163305 46.80276425 118.28618081 46.85295252 120.74176025 46.90390015 C122.40970789 46.9239686 124.07767846 46.94221877 125.7456665 46.95858765 C129.82871895 46.99921503 133.9085948 47.07749996 137.99176025 47.15390015 C137.99176025 36.59390015 137.99176025 26.03390015 137.99176025 15.15390015 C92.12176025 15.15390015 46.25176025 15.15390015 -1.00823975 15.15390015 C-1.00823975 25.71390015 -1.00823975 36.27390015 -1.00823975 47.15390015 C2.41373779 47.12247925 2.41373779 47.12247925 5.90484619 47.09042358 C13.44049517 47.02415839 20.97615699 46.97996673 28.51202011 46.94665146 C33.08126989 46.9257725 37.65022128 46.89744943 42.21929932 46.85214233 C46.62836898 46.80869526 51.03715156 46.78476537 55.44641876 46.77439117 C57.12897512 46.76699772 58.81151568 46.75255998 60.49394989 46.73097992 C62.85001126 46.70196012 65.20488498 46.6979434 67.56109619 46.69979858 C68.60550873 46.67822693 68.60550873 46.67822693 69.67102051 46.65621948 C72.99675219 46.68457264 74.74629049 46.97432439 77.46008301 48.95962524 C78.99176025 51.15390015 78.99176025 51.15390015 78.92926025 54.71640015 C78.03767036 57.98556309 77.66943928 59.22597125 74.99176025 61.15390015 C71.96836832 62.66559611 68.83370655 62.3187063 65.51617432 62.3309021 C64.3597644 62.3407589 64.3597644 62.3407589 63.17999268 62.35081482 C60.62245592 62.37056389 58.06497797 62.38221484 55.50738525 62.3921814 C54.63410332 62.39625692 53.76082138 62.40033245 52.86107635 62.40453148 C48.23764786 62.42540052 43.61424911 62.4396978 38.99078369 62.44906616 C34.21799125 62.46012369 29.44566593 62.49451344 24.67303848 62.53423786 C21.00125266 62.56040262 17.32957806 62.56875794 13.65770721 62.57234764 C11.8986674 62.57721511 10.13963261 62.58883372 8.3806839 62.60738564 C5.91505631 62.63177139 3.45063594 62.63081332 0.98492432 62.62387085 C0.26157898 62.63668091 -0.46176636 62.64949097 -1.20703125 62.66268921 C-6.26130856 62.61096261 -9.16375598 61.40562377 -13.00823975 58.15390015 C-14.9941499 55.28404615 -15.27221541 52.9293403 -15.33050537 49.4805603 C-15.34972046 48.55925323 -15.36893555 47.63794617 -15.38873291 46.6887207 C-15.39723267 45.70012054 -15.40573242 44.71152039 -15.41448975 43.69296265 C-15.42588989 42.66963837 -15.43729004 41.64631409 -15.44903564 40.59197998 C-15.46791393 38.42841719 -15.48099502 36.26479717 -15.4887085 34.10116577 C-15.50813094 30.79740871 -15.5701908 27.49613622 -15.63323975 24.19296265 C-15.64629993 22.08881073 -15.65680083 19.98464105 -15.66448975 17.88046265 C-15.68918335 16.89591095 -15.71387695 15.91135925 -15.73931885 14.89697266 C-15.70849292 10.13296966 -15.54490094 7.07862553 -12.15472412 3.54598999 C-7.89504248 0.30760073 -5.20799531 0.02651984 0 0 Z " fill="#040404" transform="translate(204.00823974609375,151.84609985351563)"/>
<path d="M0 0 C1.6867075 1.18462849 1.6867075 1.18462849 3 3 C3.38031673 5.50199413 3.38031673 5.50199413 3.38768005 8.54594421 C3.402537 10.27651817 3.402537 10.27651817 3.41769409 12.04205322 C3.41319244 13.30910095 3.4086908 14.57614868 3.40405273 15.8815918 C3.40975477 17.22864855 3.41671838 18.57570047 3.42485046 19.92274475 C3.44282311 23.58421393 3.44160498 27.24544396 3.43590808 30.90694404 C3.4328198 33.96579714 3.43890518 37.02460407 3.44494683 40.08345062 C3.45900609 47.30461474 3.4574213 54.52566063 3.44604492 61.74682617 C3.43458301 69.18644953 3.44860345 76.62571159 3.4754414 84.06528729 C3.49763537 90.45780238 3.50422687 96.85020438 3.49836498 103.24275523 C3.49500048 107.05819738 3.49737548 110.87340836 3.51461601 114.68881798 C3.53014048 118.28160262 3.5260695 121.87385545 3.50731087 125.46661949 C3.50189595 127.40452284 3.51610037 129.34245036 3.53100586 131.28030396 C3.46380782 139.26014886 2.52057538 144.63996869 -2.60546875 150.98828125 C-11.57036165 158.49222864 -21.2595797 158.43624474 -32.47491455 158.38768005 C-34.04654659 158.3918569 -35.61817561 158.39733634 -37.18979907 158.40399987 C-41.49247041 158.41842633 -45.79494973 158.4142186 -50.09763145 158.40683305 C-54.74384728 158.40209697 -59.39002183 158.41461485 -64.03622437 158.42485046 C-73.13067322 158.44203284 -82.22505296 158.44287995 -91.31951383 158.43763756 C-98.70913807 158.43359502 -106.0987419 158.43504041 -113.48836517 158.44038582 C-115.06632654 158.44150845 -115.06632654 158.44150845 -116.67616592 158.44265376 C-118.81322347 158.44418524 -120.950281 158.44572358 -123.08733854 158.44726873 C-143.11895687 158.46099074 -163.15053612 158.45555728 -183.18215355 158.44408352 C-201.51731136 158.43414263 -219.85236838 158.44710713 -238.18751064 158.47101771 C-257.0127068 158.49538265 -275.83785596 158.50502355 -294.66306758 158.49836498 C-305.23273702 158.4948681 -315.80232885 158.49713621 -326.37198639 158.51461601 C-335.36558011 158.52930505 -344.35904152 158.5300163 -353.35263255 158.5125451 C-357.94265141 158.50400711 -362.53243356 158.50195373 -367.12244034 158.51719666 C-371.32172496 158.53096984 -375.52056841 158.52637644 -379.71982703 158.50695742 C-381.2411699 158.50317446 -382.7625475 158.506185 -384.28385964 158.51656907 C-386.34820895 158.52966109 -388.41101783 158.51822844 -390.47529984 158.50057125 C-392.19665866 158.50041025 -392.19665866 158.50041025 -393.95279241 158.50024599 C-397.69601015 157.88573923 -399.36846961 156.6960933 -402 154 C-402.625 150.5625 -402.625 150.5625 -402 147 C-399.47520218 143.81914268 -397.97439265 142.19906762 -393.9458884 141.37604749 C-392.21965092 141.37677808 -392.21965092 141.37677808 -390.45853996 141.37752342 C-389.81208753 141.37096462 -389.1656351 141.36440581 -388.4995932 141.35764825 C-386.32999441 141.34172556 -384.16219361 141.36145282 -381.99264526 141.38095093 C-380.42303679 141.37678837 -378.85343288 141.37042391 -377.28384125 141.36204493 C-372.96812987 141.34533711 -368.65299264 141.35974234 -364.33731294 141.37910604 C-359.68424224 141.39452073 -355.03124659 141.38108943 -350.37817383 141.37101746 C-342.31492189 141.35739319 -334.25183978 141.36171359 -326.18859482 141.37784958 C-314.52721107 141.40089834 -302.86599782 141.39361759 -291.20460846 141.37831838 C-272.28108512 141.3540384 -253.35761629 141.34984499 -234.43408203 141.36035156 C-232.73485327 141.3612873 -232.73485327 141.3612873 -231.00129665 141.36224194 C-228.7084761 141.36351327 -226.41565554 141.36478751 -224.12283499 141.36606465 C-222.98603235 141.36669703 -221.84922972 141.36732941 -220.67797852 141.36798096 C-219.54013798 141.3686191 -218.40229744 141.36925725 -217.22997689 141.36991473 C-204.58837682 141.37672238 -191.94677753 141.37871171 -179.30517578 141.37890625 C-178.17312729 141.37892908 -177.0410788 141.37895191 -175.8747258 141.37897544 C-157.02028588 141.37890627 -138.1658667 141.3668951 -119.31143677 141.34794676 C-107.67449148 141.33696507 -96.03765447 141.33784184 -84.40071441 141.3538865 C-76.43326852 141.36432826 -68.46586628 141.36459904 -60.49841748 141.35676835 C-55.89655382 141.35266822 -51.29482877 141.35367212 -46.69298172 141.36770058 C-42.48508442 141.38047281 -38.27742229 141.37966708 -34.0695243 141.36782809 C-32.54270973 141.36601771 -31.0158791 141.36935795 -29.48908912 141.37821047 C-27.42235896 141.3894917 -25.35648618 141.38252223 -23.28977776 141.3707943 C-22.13927748 141.37160606 -20.9887772 141.37241782 -19.80341327 141.37325418 C-16.99404027 141.23543856 -16.99404027 141.23543856 -15.16938889 139.60182536 C-12.94214873 136.55095854 -12.87526522 134.555136 -12.87542725 130.81987 C-12.87286423 129.72209229 -12.87030121 128.62431458 -12.86766052 127.49327087 C-12.87081017 125.67841942 -12.87081017 125.67841942 -12.87402344 123.8269043 C-12.87115579 121.8774459 -12.86828025 119.9279875 -12.86510801 117.97852957 C-12.86242467 115.87925099 -12.861983 113.77998049 -12.86190033 111.6807003 C-12.86076111 107.30628566 -12.84793085 102.93195563 -12.83233643 98.55757141 C-12.82976357 97.81961907 -12.82719072 97.08166672 -12.8245399 96.32135218 C-12.81927319 94.81216361 -12.81398771 93.30297509 -12.80868387 91.79378664 C-12.77356171 81.60803552 -12.74702195 71.42238895 -12.74951172 61.23657227 C-12.75110031 54.36839444 -12.73506436 47.50050447 -12.69880509 40.63241893 C-12.6803414 36.99752657 -12.67100514 33.36311481 -12.68328094 29.72818565 C-12.6968457 25.67215205 -12.6717898 21.61723733 -12.64355469 17.5612793 C-12.65375137 16.35745102 -12.66394806 15.15362274 -12.67445374 13.91331482 C-12.57300524 5.80584956 -12.57300524 5.80584956 -9.68634033 1.74617004 C-6.18792117 -0.527866 -4.09530471 -0.60671181 0 0 Z " fill="#040404" transform="translate(509,324)"/>
<path d="M0 0 C9.03648696 6.7736678 14.54206858 15.72116147 16.38671875 26.7890625 C27.60671875 26.4590625 38.82671875 26.1290625 50.38671875 25.7890625 C48.40671875 23.4790625 46.42671875 21.1690625 44.38671875 18.7890625 C43.6472665 15.01785603 43.84568617 13.61143202 45.94921875 10.4140625 C49.31485033 8.17030811 51.39609845 8.38135863 55.38671875 8.7890625 C58.09326172 10.62158203 58.09326172 10.62158203 60.62890625 13.171875 C61.54929687 14.09226563 62.4696875 15.01265625 63.41796875 15.9609375 C64.11792969 16.68893555 64.11792969 16.68893555 64.83203125 17.43164062 C66.25806548 18.91027448 67.71345618 20.35421806 69.17578125 21.796875 C77.03039363 29.78461641 77.03039363 29.78461641 77.38671875 35.7890625 C76.48046875 37.59765625 76.48046875 37.59765625 74.88671875 39.2265625 C74.24734375 39.88527344 73.60796875 40.54398438 72.94921875 41.22265625 C72.10359375 42.06957031 71.25796875 42.91648438 70.38671875 43.7890625 C69.19701481 45.06957046 68.00972172 46.35232053 66.82421875 47.63671875 C65.51335884 49.02238672 64.20083843 50.4064856 62.88671875 51.7890625 C62.25830078 52.47282959 61.62988281 53.15659668 60.98242188 53.86108398 C57.76729188 57.16361801 56.25340958 58.66030208 51.57421875 59.35546875 C48.38671875 58.7890625 48.38671875 58.7890625 45.88671875 56.7265625 C43.91312992 52.8616177 44.18479074 50.92069003 45.38671875 46.7890625 C46.70671875 45.4690625 48.02671875 44.1490625 49.38671875 42.7890625 C38.49671875 42.4590625 27.60671875 42.1290625 16.38671875 41.7890625 C15.39671875 45.0890625 14.40671875 48.3890625 13.38671875 51.7890625 C8.34937377 62.19957546 -0.16105426 68.70953511 -10.71875 72.87890625 C-21.5184176 76.27475315 -32.4876521 75.91706353 -42.61328125 70.7890625 C-53.40344203 64.45221571 -60.38219996 56.19082876 -63.94921875 44.125 C-66.43041288 31.66064832 -64.79010635 21.17184019 -58.07421875 10.296875 C-44.4026953 -8.94692816 -19.37484389 -12.3488016 0 0 Z " fill="#040403" transform="translate(99.61328125,149.2109375)"/>
<path d="M0 0 C0.82886719 0.41378906 1.65773438 0.82757813 2.51171875 1.25390625 C13.24994692 7.14468314 19.81526589 16.16898028 23.3125 27.875 C25.5737906 38.80823026 23.94918364 49.07915342 18.421875 58.765625 C11.81499084 68.70571197 3.53260495 74.83630767 -8 78 C-20.64918436 79.34124592 -31.20538328 78.33722486 -41.6875 70.8125 C-50.1950675 63.74791214 -55.83718763 54.9160813 -58 44 C-58.88673095 31.41524147 -56.63160635 21.18102943 -49 11 C-36.96085433 -2.16925705 -16.66038173 -8.44168482 0 0 Z " fill="#040403" transform="translate(376,355)"/>
<path d="M0 0 C45.87 0 91.74 0 139 0 C139 10.56 139 21.12 139 32 C136.50824219 32.03738281 134.01648438 32.07476562 131.44921875 32.11328125 C129.0364503 32.15949038 126.62383739 32.2107261 124.21118164 32.26245117 C122.53419441 32.29570863 120.85709503 32.32373808 119.17993164 32.34643555 C116.76920775 32.37996737 114.35951238 32.43227978 111.94921875 32.48828125 C111.19912033 32.49467117 110.44902191 32.5010611 109.67619324 32.50764465 C105.67018015 32.59797757 105.67018015 32.59797757 102.12817383 34.28198242 C100.91449234 36.13021368 99.90439246 37.98250912 99 40 C95.89420506 39.97720599 92.79209516 39.89992181 89.6875 39.8125 C88.36588867 39.80379883 88.36588867 39.80379883 87.01757812 39.79492188 C84.57824603 39.71144663 82.36999577 39.58806985 80 39 C77.95703125 36.51171875 77.95703125 36.51171875 77 34 C75.08203154 32.08203154 71.52508878 32.81596523 68.90991211 32.79467773 C68.16849472 32.78477814 67.42707733 32.77487854 66.66319275 32.76467896 C64.20127607 32.73297534 61.73934007 32.70827174 59.27734375 32.68359375 C57.57482895 32.66303186 55.87231935 32.6420356 54.16981506 32.62062073 C49.68012691 32.56532101 45.19039208 32.51594672 40.70062256 32.46777344 C36.12263822 32.41761594 31.54472197 32.36189992 26.96679688 32.30664062 C17.97792049 32.19896247 8.98898654 32.0980525 0 32 C0 21.44 0 10.88 0 0 Z " fill="#FDA2CD" transform="translate(203,167)"/>
<path d="M0 0 C16.83 0 33.66 0 51 0 C51 16.83 51 33.66 51 51 C34.17 51 17.34 51 0 51 C0 34.17 0 17.34 0 0 Z " fill="#BBEC6C" transform="translate(137,367)"/>
<path d="M0 0 C7.15393513 4.38121081 12.3295564 10.27615642 14.5625 18.4375 C16.07398829 27.17784535 13.54982456 34.23007948 8.5625 41.4375 C6.10117998 43.87524416 3.57628996 45.74148055 0.5625 47.4375 C-0.02015625 47.80617188 -0.6028125 48.17484375 -1.203125 48.5546875 C-7.4432185 51.02017899 -16.22105589 50.55340918 -22.5 48.375 C-29.19819584 44.6174755 -33.41461242 39.48327516 -36.8125 32.6875 C-38.4508647 24.16800357 -38.35889279 16.75123651 -33.4375 9.4375 C-32.86 8.550625 -32.2825 7.66375 -31.6875 6.75 C-23.64180564 -1.51918587 -10.87119124 -5.00759597 0 0 Z " fill="#F9E157" transform="translate(370.4375,368.5625)"/>
<path d="M0 0 C3.88418575 2.68774313 6.37408998 5.7615068 8.67578125 9.8515625 C9.04574219 10.44453125 9.41570312 11.0375 9.796875 11.6484375 C12.16285353 17.57915702 11.56671789 25.80089997 9.80078125 31.84765625 C6.58703414 38.79315577 1.93294939 43.61704208 -5.07421875 46.7265625 C-12.0111988 48.94961016 -18.83208217 48.87936968 -25.51171875 45.9140625 C-32.22275572 42.15716621 -38.05279358 36.31639182 -40.32421875 28.8515625 C-41.29322946 19.42060941 -40.73457355 12.39307047 -34.81640625 4.95703125 C-24.9928467 -5.89457523 -12.55655162 -6.87271697 0 0 Z " fill="#F9E157" transform="translate(90.32421875,161.1484375)"/>
<path d="M0 0 C4.00517396 1.60373148 6.6771098 4.42113986 9.640625 7.4453125 C10.43119293 8.24012527 10.43119293 8.24012527 11.23773193 9.05099487 C12.91325675 10.73767825 14.58167722 12.43119564 16.25 14.125 C17.38755851 15.27259388 18.52557436 16.41973461 19.6640625 17.56640625 C22.44803465 20.37238137 25.2256576 23.18450464 28 26 C26.39626852 30.00517396 23.57886014 32.6771098 20.5546875 35.640625 C20.02481232 36.16767029 19.49493713 36.69471558 18.94900513 37.23773193 C17.26232175 38.91325675 15.56880436 40.58167722 13.875 42.25 C12.72740612 43.38755851 11.58026539 44.52557436 10.43359375 45.6640625 C7.62761863 48.44803465 4.81549536 51.2256576 2 54 C-2.00517396 52.39626852 -4.6771098 49.57886014 -7.640625 46.5546875 C-8.16767029 46.02481232 -8.69471558 45.49493713 -9.23773193 44.94900513 C-10.91325675 43.26232175 -12.58167722 41.56880436 -14.25 39.875 C-15.38755851 38.72740612 -16.52557436 37.58026539 -17.6640625 36.43359375 C-20.44803465 33.62761863 -23.2256576 30.81549536 -26 28 C-24.39626852 23.99482604 -21.57886014 21.3228902 -18.5546875 18.359375 C-17.75987473 17.56880707 -17.75987473 17.56880707 -16.94900513 16.76226807 C-15.26232175 15.08674325 -13.56880436 13.41832278 -11.875 11.75 C-10.72740612 10.61244149 -9.58026539 9.47442564 -8.43359375 8.3359375 C-5.62761863 5.55196535 -2.81549536 2.7743424 0 0 Z " fill="#89BAD4" transform="translate(228,261)"/>
<path d="M0 0 C3.56206722 -0.14567407 7.12336551 -0.23419196 10.6875 -0.3125 C12.19860352 -0.3753418 12.19860352 -0.3753418 13.74023438 -0.43945312 C15.20493164 -0.46362305 15.20493164 -0.46362305 16.69921875 -0.48828125 C17.59471436 -0.51446533 18.49020996 -0.54064941 19.4128418 -0.56762695 C23.33784622 0.29352576 24.67768055 1.73926549 27 5 C27.66754456 8.31124376 27.58324649 11.52827758 27.48828125 14.89453125 C27.48120651 15.84188644 27.47413177 16.78924164 27.46684265 17.76530457 C27.43892334 20.78185021 27.37618915 23.7965184 27.3125 26.8125 C27.28741396 28.86130126 27.26460133 30.9101317 27.24414062 32.95898438 C27.19336125 37.97395586 27.09550579 42.98488466 27 48 C19.41 48 11.82 48 4 48 C3.96261719 45.12152344 3.92523438 42.24304688 3.88671875 39.27734375 C3.84044067 36.47396464 3.78922988 33.67071574 3.73754883 30.86743164 C3.70439841 28.92675765 3.676336 26.98598954 3.65356445 25.04516602 C3.61983616 22.24715253 3.56751181 19.4499939 3.51171875 16.65234375 C3.50532883 15.7916478 3.4989389 14.93095184 3.49235535 14.04417419 C3.3620246 8.64292443 2.44729356 4.82906006 0 0 Z " fill="#6BAAC9" transform="translate(470,46)"/>
<path d="M0 0 C5.69200849 2.52021974 8.82113698 6.95663743 11.875 12.25 C14.17092579 19.90308597 13.82678864 26.00625573 10.5 33.3125 C7.57146532 38.6629745 4.29445704 42.02052822 -1 45 C-1.58265625 45.36867188 -2.1653125 45.73734375 -2.765625 46.1171875 C-9.02677067 48.5909968 -17.88300354 48.16207225 -24.1328125 45.83203125 C-28.58136699 43.24921379 -32.22597347 40.41322402 -35 36 C-35 35.67 -35 35.34 -35 35 C-33.72125 34.9175 -32.4425 34.835 -31.125 34.75 C-20.67259272 33.50683419 -12.88079789 28.97879756 -6 21 C-1.78695393 14.3712165 -0.18603404 7.79651747 0 0 Z " fill="#F5D308" transform="translate(372,371)"/>
<path d="M0 0 C6.06837705 3.17867369 9.58297076 7.57383694 12 14 C13.24136135 22.19650651 12.81718876 29.69291396 8.546875 36.9140625 C4.2755529 42.67387564 -0.93506424 46.48785586 -8 48 C-16.12743557 49.0983021 -22.2040374 47.56622269 -29 43 C-31.31224169 41.11236157 -33.05840449 39.29925784 -35 37 C-35 36.34 -35 35.68 -35 35 C-34.154375 34.90203125 -33.30875 34.8040625 -32.4375 34.703125 C-22.57937292 33.40364461 -15.70454141 31.63572771 -9 24 C-8.319375 23.278125 -7.63875 22.55625 -6.9375 21.8125 C-2.29287568 15.0703034 -0.52135525 8.08100644 0 0 Z " fill="#F6D408" transform="translate(89,161)"/>
<path d="M0 0 C16.83 0 33.66 0 51 0 C51 16.83 51 33.66 51 51 C45.72 51 40.44 51 35 51 C35 34.5 35 18 35 1 C23.78 1 12.56 1 1 1 C1 17.5 1 34 1 51 C0.67 51 0.34 51 0 51 C0 34.17 0 17.34 0 0 Z " fill="#A0E133" transform="translate(137,367)"/>
<path d="M0 0 C45.87 0 91.74 0 139 0 C139 10.56 139 21.12 139 32 C128.11 32 117.22 32 106 32 C106 31.67 106 31.34 106 31 C111.94 31 117.88 31 124 31 C124 21.1 124 11.2 124 1 C83.41 1 42.82 1 1 1 C1 10.9 1 20.8 1 31 C25.09 31 49.18 31 74 31 C74 31.33 74 31.66 74 32 C49.58 32 25.16 32 0 32 C0 21.44 0 10.88 0 0 Z " fill="#CB6996" transform="translate(203,167)"/>
<path d="M0 0 C2.31 1.98 4.62 3.96 7 6 C7 10 7 10 4.70507812 12.74902344 C3.65734524 13.79612388 2.59862126 14.83230045 1.53125 15.859375 C0.97634888 16.40861633 0.42144775 16.95785767 -0.15026855 17.52374268 C-1.92434729 19.27543497 -3.71182564 21.0127106 -5.5 22.75 C-6.70533615 23.93527418 -7.90977492 25.12146166 -9.11328125 26.30859375 C-12.06521332 29.21642842 -15.02923923 32.11140921 -18 35 C-22.63268926 33.28418916 -23.37625207 31.34849752 -27 27 C-18.09 18.09 -9.18 9.18 0 0 Z " fill="#6AA7C5" transform="translate(248,280)"/>
<path d="M0 0 C1.9453125 0.37890625 1.9453125 0.37890625 4.5078125 1.94140625 C5.9453125 4.37890625 5.9453125 4.37890625 5.8828125 7.94140625 C4.9453125 11.37890625 4.9453125 11.37890625 3.8203125 13.31640625 C0.76078791 15.05013685 -1.62286275 14.80035841 -5.0546875 14.37890625 C-7.4921875 12.75390625 -7.4921875 12.75390625 -9.0546875 10.37890625 C-9.53757613 7.06766993 -9.35087739 5.08235725 -8.0546875 2.00390625 C-5.46231192 -0.10239891 -3.28423543 -0.18784372 0 0 Z " fill="#040506" transform="translate(112.0546875,62.62109375)"/>
<path d="M0 0 C2.5625 2.125 2.5625 2.125 4 5 C3.936318 8.18409977 3.51040601 10.14932332 1.875 12.875 C-1.16832808 14.70099685 -3.54249555 14.42460581 -7 14 C-9.4375 12.4375 -9.4375 12.4375 -11 10 C-11.42213381 6.56262469 -11.60856522 4.17909511 -10 1.0625 C-6.74435838 -0.66705961 -3.53165237 -0.75171717 0 0 Z " fill="#040506" transform="translate(80,63)"/>
<path d="M0 0 C2 1 2 1 3 3 C3.51981506 6.56444611 3.63102777 9.73794446 2 13 C-1.26417672 14.63208836 -4.43875614 14.65289471 -8 14 C-10 12.4375 -10 12.4375 -11 10 C-11.35773097 6.60155579 -11.58904125 4.14126742 -10 1.0625 C-6.75629493 -0.66071832 -3.5838959 -0.52265149 0 0 Z " fill="#030404" transform="translate(46,63)"/>
</svg>
